<svg width="240" height="67" viewBox="0 0 240 67" fill="none" xmlns="http://www.w3.org/2000/svg">
<path d="M61.419 25.4385H40.7023C39.9172 25.4385 39.1868 25.8392 38.766 26.5023L28.853 42.1168C27.8839 43.6432 28.9805 45.6397 30.7893 45.6397H50.9723C51.7374 45.6397 52.4533 45.2571 52.8777 44.6214L63.3262 29.0069C64.3463 27.4823 63.2533 25.4385 61.4208 25.4385H61.419Z" fill="white"/>
<path d="M14.7998 26.1428C13.8945 24.6509 11.7214 24.6746 10.8506 26.1865L0.305581 44.5005C-0.0988068 45.2037 -0.102449 46.0707 0.298296 46.7757L10.8434 65.3684C11.7104 66.8986 13.9054 66.9222 14.8071 65.4122L25.9077 46.8194C26.3431 46.0908 26.3394 45.1818 25.9004 44.455L14.7998 26.1391V26.1428Z" fill="white"/>
<path d="M12.1271 21.6748C12.537 22.3853 13.2948 22.8243 14.1145 22.8243H56.5661C58.3294 22.8243 59.4333 20.9153 58.5534 19.387L48.0576 1.14941C47.6477 0.438998 46.89 0 46.0702 0H3.6186C1.85532 0 0.751449 1.90901 1.63127 3.4373L12.1271 21.6748Z" fill="white"/>
<path d="M90.204 13.0342C91.9035 13.0342 93.4227 13.2692 94.7634 13.7409C96.1023 14.2127 97.2389 14.863 98.1716 15.6955C99.1042 16.5261 99.8164 17.5061 100.306 18.6337C100.796 19.7612 101.041 20.9799 101.041 22.2914C101.041 23.7505 100.869 25.0256 100.527 26.1167C100.184 27.2078 99.6908 28.1532 99.0441 28.9565C98.3974 29.7598 97.6032 30.4302 96.6615 30.9657C95.7197 31.5012 94.6468 31.9348 93.4464 32.2681C95.5157 32.9712 97.0586 34.0186 98.075 35.414C99.0915 36.8093 99.5997 38.4851 99.5997 40.4433C99.5997 42.6055 99.1789 44.5273 98.3392 46.2068C97.4994 47.8881 96.3719 49.3016 94.9583 50.4474C93.5448 51.5931 91.9236 52.4657 90.0947 53.0668C88.2659 53.6679 86.3532 53.9685 84.3586 53.9685C82.4733 53.9685 80.8211 53.7608 79.3967 53.3455C77.974 52.9302 76.7499 52.289 75.7244 51.4201C74.6988 50.5512 73.8627 49.4528 73.2161 48.1231C72.5694 46.7933 72.0703 45.2231 71.7188 43.4125L74.7954 42.2212C75.3491 41.9989 75.8756 41.8896 76.3747 41.8896C76.8738 41.8896 77.2563 41.9825 77.5806 42.1665C77.903 42.3523 78.1307 42.6292 78.26 42.9972C78.5551 43.9207 78.8975 44.7204 79.2855 45.3943C79.6735 46.0683 80.1362 46.633 80.6718 47.0848C81.2073 47.5383 81.8266 47.8753 82.5279 48.0957C83.2292 48.318 84.0435 48.4273 84.967 48.4273C86.2421 48.4273 87.3788 48.205 88.3752 47.7624C89.3734 47.3197 90.2131 46.7332 90.898 46.0027C91.5811 45.2723 92.1039 44.4362 92.4628 43.4944C92.8234 42.5527 93.0038 41.5818 93.0038 40.5854C93.0038 39.8276 92.8836 39.13 92.6431 38.4924C92.4027 37.8549 91.96 37.3102 91.3134 36.8567C90.6667 36.4049 89.7796 36.0442 88.652 35.7765C87.5245 35.5087 86.0745 35.3739 84.3021 35.3739L84.9397 30.6633C86.6574 30.6633 88.122 30.5012 89.3315 30.1788C90.541 29.8564 91.5247 29.3882 92.2824 28.7798C93.0402 28.1696 93.5885 27.4355 93.931 26.5757C94.2734 25.7159 94.4446 24.7323 94.4446 23.6248C94.4446 21.9799 93.9692 20.7339 93.0183 19.8833C92.0657 19.0344 90.7778 18.6082 89.153 18.6082C87.5281 18.6082 85.998 19.0508 84.7885 19.9379C83.579 20.8232 82.6773 21.9763 82.0871 23.3971C81.8102 24.0802 81.4587 24.5684 81.0343 24.8634C80.6098 25.1585 80.1016 25.3061 79.5096 25.3061C79.2509 25.3061 78.9558 25.2788 78.6225 25.2241L75.2417 24.6248C75.7408 22.7213 76.4694 21.0436 77.4312 19.5936C78.3912 18.1437 79.5242 16.9323 80.8266 15.9614C82.129 14.9924 83.5753 14.2619 85.1637 13.7719C86.7522 13.2819 88.4335 13.0378 90.2077 13.0378L90.204 13.0342Z" fill="white"/>
<path d="M108.383 39.3338L106.638 53.5239H99.4883L104.394 13.4512H116.587C118.859 13.4512 120.813 13.7244 122.449 14.2691C124.085 14.8137 125.427 15.5769 126.482 16.5551C127.535 17.5351 128.316 18.6936 128.825 20.0325C129.333 21.3713 129.586 22.845 129.586 24.4534C129.586 26.5974 129.249 28.5793 128.575 30.3972C127.901 32.217 126.888 33.7872 125.54 35.1078C124.192 36.4284 122.506 37.4631 120.484 38.2118C118.46 38.9604 116.101 39.3338 113.403 39.3338H108.387H108.383ZM110.906 18.9924L109.077 33.7362H114.121C115.525 33.7362 116.744 33.5249 117.779 33.0986C118.813 32.6742 119.673 32.0785 120.356 31.3117C121.039 30.5448 121.544 29.6358 121.866 28.5811C122.19 27.5282 122.351 26.3643 122.351 25.0892C122.351 24.1839 122.221 23.3532 121.963 22.5954C121.704 21.8377 121.307 21.1965 120.771 20.67C120.236 20.1436 119.566 19.7319 118.762 19.4368C117.959 19.1418 117.003 18.9942 115.893 18.9942H110.906V18.9924Z" fill="white"/>
<path d="M160.2 43.6296C160.606 43.6296 160.958 43.7863 161.253 44.1014L164.191 47.2891C162.566 49.3038 160.564 50.8467 158.191 51.9178C155.817 52.9888 152.966 53.5262 149.642 53.5262C146.667 53.5262 143.993 53.018 141.618 52.0015C139.244 50.9851 137.215 49.5716 135.536 47.7609C133.854 45.9503 132.567 43.7881 131.669 41.2761C130.772 38.7642 130.324 36.0209 130.324 33.0445C130.324 30.068 130.823 27.2756 131.822 24.7727C132.82 22.2699 134.224 20.1132 136.035 18.3025C137.845 16.4919 140.011 15.0838 142.534 14.0765C145.055 13.0692 147.84 12.5664 150.89 12.5664C153.939 12.5664 156.464 13.0418 158.692 13.9945C160.917 14.9472 162.825 16.2077 164.415 17.7779L161.921 21.2425C161.772 21.4648 161.584 21.6579 161.353 21.8254C161.121 21.9912 160.803 22.075 160.396 22.075C159.99 22.075 159.537 21.9092 159.094 21.5759C158.651 21.2425 158.087 20.8837 157.404 20.4957C156.721 20.1077 155.855 19.747 154.813 19.4155C153.77 19.084 152.444 18.9164 150.837 18.9164C148.953 18.9164 147.221 19.2443 145.642 19.9C144.062 20.5558 142.704 21.4939 141.567 22.7125C140.43 23.9312 139.543 25.4139 138.906 27.1608C138.268 28.9059 137.949 30.8695 137.949 33.0499C137.949 35.2304 138.268 37.3088 138.906 39.0629C139.543 40.8189 140.407 42.2962 141.496 43.4966C142.587 44.6971 143.869 45.6169 145.349 46.2545C146.826 46.892 148.416 47.2108 150.116 47.2108C151.132 47.2108 152.05 47.1562 152.873 47.0451C153.695 46.9339 154.453 46.7591 155.147 46.5186C155.839 46.2782 156.495 45.9685 157.114 45.5896C157.733 45.2107 158.347 44.7444 158.957 44.1907C159.141 44.0249 159.336 43.8901 159.539 43.7881C159.743 43.6861 159.963 43.6351 160.203 43.6351L160.2 43.6296Z" fill="white"/>
<path d="M203.875 33.0442C203.875 35.9824 203.385 38.702 202.406 41.2067C201.426 43.7095 200.051 45.8772 198.277 47.706C196.503 49.5349 194.37 50.963 191.876 51.9885C189.382 53.0141 186.619 53.5259 183.59 53.5259C180.56 53.5259 177.793 53.0122 175.291 51.9885C172.786 50.963 170.644 49.5349 168.86 47.706C167.077 45.8772 165.696 43.7113 164.718 41.2067C163.738 38.7038 163.25 35.9824 163.25 33.0442C163.25 30.106 163.74 27.3864 164.718 24.8818C165.696 22.3789 167.079 20.2113 168.86 18.3824C170.644 16.5536 172.786 15.1254 175.291 14.0999C177.793 13.0744 180.56 12.5625 183.59 12.5625C186.619 12.5625 189.382 13.0798 191.876 14.1145C194.37 15.1491 196.505 16.5772 198.277 18.397C200.051 20.2167 201.426 22.3789 202.406 24.8818C203.385 27.3864 203.875 30.106 203.875 33.0442ZM196.226 33.0442C196.226 30.8456 195.934 28.8728 195.353 27.1278C194.77 25.3827 193.934 23.8999 192.845 22.6795C191.754 21.4609 190.43 20.5282 188.869 19.8816C187.307 19.2349 185.548 18.9107 183.59 18.9107C181.631 18.9107 179.866 19.2349 178.296 19.8816C176.726 20.5282 175.391 21.4609 174.292 22.6795C173.194 23.8981 172.349 25.3809 171.757 27.1278C171.165 28.8728 170.87 30.8456 170.87 33.0442C170.87 35.2428 171.165 37.2156 171.757 38.9607C172.349 40.7057 173.194 42.1848 174.292 43.3944C175.391 44.6039 176.726 45.5329 178.296 46.1796C179.866 46.8262 181.631 47.1486 183.59 47.1486C185.548 47.1486 187.307 46.8262 188.869 46.1796C190.43 45.5329 191.756 44.6039 192.845 43.3944C193.934 42.1848 194.77 40.7057 195.353 38.9607C195.934 37.2138 196.226 35.2428 196.226 33.0442Z" fill="white"/>
<path d="M210.111 13.0487C210.333 13.0761 210.53 13.1325 210.706 13.2145C210.881 13.2983 211.052 13.4185 211.218 13.5752C211.386 13.7318 211.57 13.9395 211.772 14.1981L232.806 40.9971C232.731 40.3504 232.68 39.7183 232.653 39.099C232.625 38.4797 232.611 37.9022 232.611 37.3667V13.0068H239.179V53.0795H235.327C234.735 53.0795 234.246 52.9866 233.858 52.8026C233.47 52.6187 233.092 52.2853 232.722 51.8044L211.772 25.1166C211.827 25.7086 211.868 26.2952 211.896 26.8763C211.923 27.4592 211.938 27.9892 211.938 28.4701V53.0795H205.369V13.0068H209.276C209.608 13.0068 209.887 13.0214 210.109 13.0487H210.111Z" fill="white"/>
</svg>
