<svg width="29" height="28" viewBox="0 0 29 28" fill="none" xmlns="http://www.w3.org/2000/svg">
<path d="M16.6364 21.3258C16.3539 21.0433 16.2183 20.702 16.2296 20.3018C16.2419 19.9015 16.3892 19.5602 16.6717 19.2777L20.6621 15.2873H4.91252C4.51231 15.2873 4.1766 15.1517 3.90539 14.8805C3.63513 14.6103 3.5 14.275 3.5 13.8748C3.5 13.4746 3.63513 13.1389 3.90539 12.8677C4.1766 12.5974 4.51231 12.4623 4.91252 12.4623H20.6621L16.6364 8.4366C16.3539 8.15409 16.2127 7.81838 16.2127 7.42947C16.2127 7.0415 16.3539 6.70626 16.6364 6.42376C16.9189 6.14125 17.2546 6 17.6436 6C18.0315 6 18.3668 6.14125 18.6493 6.42376L25.1116 12.886C25.2528 13.0273 25.3531 13.1803 25.4124 13.3451C25.4708 13.5099 25.5 13.6865 25.5 13.8748C25.5 14.0631 25.4708 14.2397 25.4124 14.4045C25.3531 14.5693 25.2528 14.7223 25.1116 14.8636L18.614 21.3612C18.355 21.6201 18.0315 21.7496 17.6436 21.7496C17.2546 21.7496 16.9189 21.6083 16.6364 21.3258Z" fill="#0A2E6D"/>
</svg>
