<svg width="22" height="16" viewBox="0 0 22 16" fill="none" xmlns="http://www.w3.org/2000/svg">
<path d="M13.1364 15.3258C12.8539 15.0433 12.7183 14.702 12.7296 14.3018C12.7419 13.9015 12.8892 13.5602 13.1717 13.2777L17.1621 9.28732H1.41252C1.01231 9.28732 0.676597 9.15172 0.405394 8.88051C0.135131 8.61025 0 8.27501 0 7.8748C0 7.47458 0.135131 7.13888 0.405394 6.86767C0.676597 6.59741 1.01231 6.46228 1.41252 6.46228H17.1621L13.1364 2.4366C12.8539 2.15409 12.7127 1.81838 12.7127 1.42947C12.7127 1.0415 12.8539 0.70626 13.1364 0.423756C13.4189 0.141252 13.7546 0 14.1436 0C14.5315 0 14.8668 0.141252 15.1493 0.423756L21.6116 6.88603C21.7528 7.02729 21.8531 7.18031 21.9124 7.3451C21.9708 7.5099 22 7.68646 22 7.8748C22 8.06313 21.9708 8.2397 21.9124 8.40449C21.8531 8.56929 21.7528 8.72231 21.6116 8.86356L15.114 15.3612C14.855 15.6201 14.5315 15.7496 14.1436 15.7496C13.7546 15.7496 13.4189 15.6083 13.1364 15.3258Z" fill="white"/>
</svg>
