<svg width="106" height="111" viewBox="0 0 106 111" fill="none" xmlns="http://www.w3.org/2000/svg">
<path d="M101.851 42.1865H67.4957C66.1946 42.1865 64.9831 42.8518 64.2844 43.9508L47.8447 69.8438C46.237 72.3765 48.0562 75.6856 51.0561 75.6856H84.5257C85.7947 75.6856 86.9807 75.0524 87.6862 73.9976L105.012 48.1046C106.703 45.5773 104.891 42.1865 101.851 42.1865Z" fill="url(#paint0_linear_3851_1629)"/>
<path d="M24.5425 43.3567C23.0419 40.8816 19.4383 40.9218 17.994 43.4304L0.507527 73.8024C-0.164461 74.9696 -0.169817 76.4047 0.495478 77.5759L17.9832 108.41C19.4223 110.946 23.062 110.987 24.5572 108.483L42.9646 77.6509C43.6861 76.4421 43.6808 74.9335 42.9512 73.7301L24.5438 43.3567H24.5425Z" fill="url(#paint1_linear_3851_1629)"/>
<path d="M20.1093 35.9447C20.7879 37.124 22.0449 37.8509 23.4063 37.8509H93.8058C96.7307 37.8509 98.5619 34.6864 97.1028 32.1497L79.6967 1.9062C79.0181 0.726873 77.7611 0 76.401 0H5.99884C3.07395 0 1.24271 3.16451 2.70181 5.7012L20.1079 35.9447H20.1093Z" fill="url(#paint2_linear_3851_1629)"/>
<defs>
<linearGradient id="paint0_linear_3851_1629" x1="-17.63" y1="-15.1775" x2="117.691" y2="91.4197" gradientUnits="userSpaceOnUse">
<stop offset="0.25" stop-color="#41CFD2"/>
<stop offset="0.69" stop-color="#409ED4"/>
</linearGradient>
<linearGradient id="paint1_linear_3851_1629" x1="-47.0136" y1="22.1262" x2="88.3065" y2="128.723" gradientUnits="userSpaceOnUse">
<stop offset="0.25" stop-color="#41CFD2"/>
<stop offset="0.69" stop-color="#409ED4"/>
</linearGradient>
<linearGradient id="paint2_linear_3851_1629" x1="-8.34718" y1="-26.9599" x2="126.974" y2="79.6373" gradientUnits="userSpaceOnUse">
<stop offset="0.25" stop-color="#41CFD2"/>
<stop offset="0.69" stop-color="#409ED4"/>
</linearGradient>
</defs>
</svg>
